<?xml version="1.0" encoding="UTF-8"?>
<svg id="Layer_3" data-name="Layer 3" xmlns="http://www.w3.org/2000/svg" xmlns:xlink="http://www.w3.org/1999/xlink" viewBox="0 0 1077.45 1077.45">
  <defs>
    <style>
      .cls-1 {
        fill: #d5a9ca;
      }

      .cls-2 {
        fill: url(#radial-gradient);
      }

      .cls-3 {
        fill: #e11a51;
      }

      .cls-4 {
        fill: #e5e6a0;
      }

      .cls-5 {
        fill: url(#radial-gradient-2);
      }

      .cls-6 {
        fill: url(#radial-gradient-3);
      }
    </style>
    <radialGradient id="radial-gradient" cx="422.07" cy="527.78" fx="422.07" fy="527.78" r="409.48" gradientUnits="userSpaceOnUse">
      <stop offset=".14" stop-color="#e5e6a0"/>
      <stop offset=".35" stop-color="#d5a9ca"/>
      <stop offset=".83" stop-color="#e11a51"/>
    </radialGradient>
    <radialGradient id="radial-gradient-2" cx="541.85" cy="541.27" fx="541.85" fy="541.27" r="77.38" gradientTransform="translate(-2269.14 -1609.84) rotate(-43.47) scale(1 6.42)" gradientUnits="userSpaceOnUse">
      <stop offset=".35" stop-color="#e11a51"/>
      <stop offset=".78" stop-color="#d5a9ca"/>
    </radialGradient>
    <radialGradient id="radial-gradient-3" cx="565.15" cy="484.72" fx="565.15" fy="484.72" r="316.24" gradientUnits="userSpaceOnUse">
      <stop offset=".35" stop-color="#e11a51"/>
      <stop offset=".78" stop-color="#d5a9ca"/>
    </radialGradient>
  </defs>
  <path class="cls-1" d="m854.56,748.01c-16.65,0-61.04-33.14-97.53-62.89-57.74-47.08-130.34-113.8-204.41-187.88-74.1-74.09-140.83-146.68-187.89-204.41-33.54-41.13-71.37-92.3-61.19-102.48,2.28-2.27,6.63-2.3,12.93-.08,39.45,13.86,156.96,112.96,285.74,240.99l.97.97c2.4,2.39,4.81,4.78,7.24,7.2,2.75,2.75,5.46,5.48,8.17,8.21,128.07,128.82,227.18,246.35,241.03,285.8,2.22,6.38,2.18,10.59-.11,12.89-1.15,1.15-2.82,1.68-4.94,1.68ZM308.56,190.56c-1.64,0-2.87.39-3.64,1.17-6.93,6.93,15.99,44.27,61.33,99.87,47.03,57.68,113.71,130.22,187.76,204.26,74.03,74.04,146.57,140.71,204.26,187.75,55.6,45.33,92.93,68.26,99.86,61.33,1.67-1.67,1.55-5.42-.35-10.86-13.76-39.21-112.68-156.43-240.57-285.07-2.71-2.73-5.42-5.46-8.16-8.2-2.42-2.42-4.83-4.81-7.23-7.2l-.97-.97c-128.6-127.85-245.8-226.76-285.02-240.53-2.92-1.03-5.36-1.55-7.25-1.55Z"/>
  <path class="cls-1" d="m859.15,871.2c-17.36,0-70.14-41.11-113.63-77.65-67.61-56.82-153.28-136.55-241.24-224.51C342.13,406.85,185.31,228.17,203.58,209.87c4.8-4.8,19.99,1.81,46.45,20.23.07.04.18.12.29.2,69.03,51.02,169.35,139.75,275.24,243.44,2.48,2.42,4.94,4.85,7.42,7.29l3.8,3.74c8.44,8.32,17.19,16.99,25.98,25.79,11.98,11.98,23.5,23.62,34.23,34.57l8.38,8.55c3.32,3.38,6.61,6.77,9.89,10.15l.41.42c96.67,99.71,179.55,194.04,227.38,258.8l.31.42c18.31,26.34,24.87,41.47,20.08,46.26h0c-.99.99-2.44,1.46-4.3,1.46ZM208.04,210.27c-1.6,0-2.53.43-3.08.98-13.43,13.45,104.19,159.87,300.7,356.41,87.92,87.92,173.55,167.61,241.12,224.4,96.6,81.19,112.66,78.93,115.29,76.31h0c2.23-2.23,2.56-10.88-20.3-43.77l-.31-.42c-47.76-64.66-130.58-158.91-227.19-258.57l-.41-.42c-3.28-3.38-6.56-6.77-9.88-10.15l-8.38-8.55c-10.73-10.95-22.24-22.58-34.21-34.56-8.79-8.79-17.53-17.47-25.97-25.78l-3.8-3.74c-2.47-2.44-4.94-4.87-7.42-7.28-105.83-103.63-206.08-192.29-275.03-243.26-.07-.05-.13-.1-.2-.14-24.96-17.38-36.04-21.47-40.93-21.47Z"/>
  <circle class="cls-2" cx="558.18" cy="548.66" r="239.55"/>
  <path class="cls-5" d="m884.01,907.05c-20.4,20.38-197.61-123.75-395.79-321.96C290.02,386.91,145.89,209.71,166.27,189.31c7.73-7.71,37.92,8.14,83.21,41.59-24.76-17.24-40.74-24.8-45.2-20.34-15.74,15.77,118.88,175.94,300.7,357.78,181.84,181.84,342.04,316.47,357.78,300.7,4.44-4.44-3.05-20.36-20.19-45.01,33.35,45.18,49.16,75.3,41.44,83.02Z"/>
  <path class="cls-4" d="m781.65,589.93q0-82.53-82.53-82.53,82.53,0,82.53-82.53,0,82.53,82.53,82.53-82.53,0-82.53,82.53Z"/>
  <path class="cls-4" d="m740.39,548.66q41.26-41.26,0-82.53,41.26,41.26,82.53,0-41.26,41.26,0,82.53-41.26-41.26-82.53,0Z"/>
  <path class="cls-6" d="m878.19,797.76c-24.64,24.64-184.76-95.56-357.64-268.44C347.66,356.43,227.47,196.31,252.11,171.68c8.11-8.11,30.92-.51,64.03,19.51-5.85-2.07-9.9-2.16-11.91-.16-15.59,15.59,95.93,152.38,249.08,305.52,153.14,153.16,289.92,264.66,305.5,249.08,2.01-2.01,1.91-6.04-.12-11.87,20,33.1,27.6,55.89,19.49,64Z"/>
  <circle class="cls-3" cx="909.55" cy="720.72" r="15.38"/>
  <path class="cls-4" d="m225.02,562.78c-12.67,0-22.97-10.31-22.97-22.98s10.31-22.97,22.97-22.97,22.98,10.31,22.98,22.97-10.31,22.98-22.98,22.98Zm0-44c-11.59,0-21.03,9.43-21.03,21.03s9.43,21.03,21.03,21.03,21.03-9.43,21.03-21.03-9.43-21.03-21.03-21.03Z"/>
  <circle class="cls-4" cx="254.17" cy="496.57" r="12.09"/>
</svg>