<?xml version="1.0" encoding="UTF-8"?>
<svg id="Layer_6" data-name="Layer 6" xmlns="http://www.w3.org/2000/svg" xmlns:xlink="http://www.w3.org/1999/xlink" viewBox="0 0 1077.45 1077.45">
  <defs>
    <style>
      .cls-1 {
        fill: url(#radial-gradient);
      }

      .cls-2 {
        fill: none;
        stroke: #898df0;
        stroke-miterlimit: 10;
        stroke-width: 3px;
      }

      .cls-3 {
        fill: url(#radial-gradient-2);
      }

      .cls-4 {
        fill: url(#radial-gradient-3);
      }

      .cls-5 {
        fill: #e0f663;
      }
    </style>
    <radialGradient id="radial-gradient" cx="609.88" cy="547.39" fx="609.88" fy="547.39" r="303.09" gradientUnits="userSpaceOnUse">
      <stop offset=".52" stop-color="#bce5ac"/>
      <stop offset="1" stop-color="#898df0"/>
    </radialGradient>
    <radialGradient id="radial-gradient-2" cx="645.89" cy="534.71" fx="645.89" fy="534.71" r="189.11" gradientUnits="userSpaceOnUse">
      <stop offset="0" stop-color="#e0f663"/>
      <stop offset="1" stop-color="#fff" stop-opacity="0"/>
    </radialGradient>
    <radialGradient id="radial-gradient-3" cx="752.57" cy="522.77" fx="752.57" fy="522.77" r="202.59" gradientUnits="userSpaceOnUse">
      <stop offset=".52" stop-color="#e0f663"/>
      <stop offset="1" stop-color="#bce5ac"/>
    </radialGradient>
  </defs>
  <path class="cls-1" d="m645.9,768.41c6.38,0,12.7-.25,18.95-.76-41.98,26.13-91.54,41.2-144.61,41.2-151.42,0-274.16-122.74-274.16-274.14s122.74-274.14,274.16-274.14c53.07,0,102.63,15.08,144.61,41.2-6.25-.51-12.57-.76-18.95-.76-129.08,0-233.7,104.64-233.7,233.7s104.62,233.7,233.7,233.7Z"/>
  <circle class="cls-3" cx="645.89" cy="534.71" r="189.11"/>
  <circle class="cls-4" cx="645.89" cy="534.71" r="109.49"/>
  <path class="cls-5" d="m443.02,419.83q0-58.56-58.56-58.56,58.56,0,58.56-58.56,0,58.56,58.56,58.56-58.56,0-58.56,58.56Z"/>
  <path class="cls-5" d="m413.74,390.55q29.28-29.28,0-58.56,29.28,29.28,58.56,0-29.28,29.28,0,58.56-29.28-29.28-58.56,0Z"/>
  <path class="cls-5" d="m664.85,782.37q0-58.56-58.56-58.56,58.56,0,58.56-58.56,0,58.56,58.56,58.56-58.56,0-58.56,58.56Z"/>
  <path class="cls-5" d="m635.57,753.09q29.28-29.28,0-58.56,29.28,29.28,58.56,0-29.28,29.28,0,58.56-29.28-29.28-58.56,0Z"/>
  <circle class="cls-2" cx="715.89" cy="644.2" r="10.91"/>
  <path class="cls-5" d="m258.75,521.22c-8.99,0-16.3-7.31-16.3-16.3s7.31-16.3,16.3-16.3,16.3,7.31,16.3,16.3-7.31,16.3-16.3,16.3Zm0-31.22c-8.23,0-14.92,6.69-14.92,14.92s6.69,14.92,14.92,14.92,14.92-6.69,14.92-14.92-6.69-14.92-14.92-14.92Z"/>
  <circle class="cls-5" cx="279.44" cy="474.24" r="8.58"/>
</svg>