<?xml version="1.0" encoding="UTF-8"?>
<svg id="Layer_3" data-name="Layer 3" xmlns="http://www.w3.org/2000/svg" xmlns:xlink="http://www.w3.org/1999/xlink" viewBox="0 0 1077.45 1077.45">
  <defs>
    <style>
      .cls-1 {
        fill: url(#linear-gradient-2);
      }

      .cls-2 {
        fill: #3ee3bd;
      }

      .cls-3 {
        fill: url(#radial-gradient);
      }

      .cls-4 {
        fill: #fffa8b;
      }

      .cls-5 {
        fill: #ffd091;
      }

      .cls-6 {
        fill: url(#radial-gradient-2);
      }

      .cls-7 {
        fill: url(#linear-gradient);
      }
    </style>
    <linearGradient id="linear-gradient" x1="409.06" y1="339.65" x2="613.46" y2="339.65" gradientUnits="userSpaceOnUse">
      <stop offset="0" stop-color="#fffa8b"/>
      <stop offset=".04" stop-color="#d9f594"/>
      <stop offset=".09" stop-color="#b5f19e"/>
      <stop offset=".15" stop-color="#94eda6"/>
      <stop offset=".21" stop-color="#79eaad"/>
      <stop offset=".28" stop-color="#63e7b3"/>
      <stop offset=".36" stop-color="#52e5b7"/>
      <stop offset=".46" stop-color="#46e4ba"/>
      <stop offset=".61" stop-color="#3fe3bc"/>
      <stop offset="1" stop-color="#3ee3bd"/>
    </linearGradient>
    <linearGradient id="linear-gradient-2" x1="449.87" y1="738.26" x2="703.57" y2="738.26" gradientUnits="userSpaceOnUse">
      <stop offset="0" stop-color="#fffa8b"/>
      <stop offset=".08" stop-color="#d5f595"/>
      <stop offset=".18" stop-color="#adf0a0"/>
      <stop offset=".28" stop-color="#8aeca9"/>
      <stop offset=".39" stop-color="#6ee8b0"/>
      <stop offset=".51" stop-color="#59e6b5"/>
      <stop offset=".64" stop-color="#49e4b9"/>
      <stop offset=".78" stop-color="#40e3bc"/>
      <stop offset="1" stop-color="#3ee3bd"/>
    </linearGradient>
    <radialGradient id="radial-gradient" cx="576.72" cy="551.89" fx="576.72" fy="551.89" r="403.65" gradientUnits="userSpaceOnUse">
      <stop offset="0" stop-color="#ffd091"/>
      <stop offset=".11" stop-color="#fffa8b"/>
      <stop offset=".17" stop-color="#edf78f"/>
      <stop offset=".39" stop-color="#aff09f"/>
      <stop offset=".59" stop-color="#7eeaac"/>
      <stop offset=".76" stop-color="#5be6b5"/>
      <stop offset=".91" stop-color="#45e3ba"/>
      <stop offset="1" stop-color="#3ee3bd"/>
    </radialGradient>
    <radialGradient id="radial-gradient-2" cx="576.72" cy="551.89" fx="576.72" fy="551.89" r="201.83" gradientUnits="userSpaceOnUse">
      <stop offset="0" stop-color="#ffd091"/>
      <stop offset=".1" stop-color="#fffa8b"/>
      <stop offset=".16" stop-color="#edf78f"/>
      <stop offset=".38" stop-color="#aff09f"/>
      <stop offset=".59" stop-color="#7eeaac"/>
      <stop offset=".76" stop-color="#5be6b5"/>
      <stop offset=".91" stop-color="#45e3ba"/>
      <stop offset="1" stop-color="#3ee3bd"/>
    </radialGradient>
  </defs>
  <path class="cls-7" d="m429.26,8.03c10.56,13.27,19.3,27.96,26.84,43.19,7.51,15.25,13.85,31.13,18.71,47.48,4.83,16.36,8.33,33.14,10.24,50.14,1.92,17,2.22,34.18,1.06,51.28-1.17,17.09-3.79,34.11-8.06,50.72-.44,2.1-1.08,4.15-1.65,6.21l-1.76,6.18c-1.09,4.15-2.55,8.18-3.9,12.25l-2.05,6.09-2.15,5.98-4.27,11.94c-11.31,31.85-21.86,63.97-30.03,96.66-8.23,32.62-14.3,65.92-15.09,99.38-.34,16.7.65,33.45,3.88,49.76,3.27,16.27,8.72,32.12,16.97,46.47,8.17,14.4,19.42,26.92,32.46,37.2,1.66,1.25,3.26,2.58,4.98,3.76l5.14,3.54c3.54,2.2,7.06,4.44,10.76,6.38,1.83,1.01,3.66,2.02,5.55,2.9,1.89.9,3.75,1.86,5.65,2.72,3.84,1.66,7.67,3.36,11.62,4.79,15.65,6.09,32.11,10.09,48.74,12.97,4.15.8,8.35,1.27,12.53,1.9,4.19.59,8.4.96,12.6,1.46l12.65,1.13,12.68.76-12.71-.14-12.71-.51c-4.23-.33-8.47-.57-12.69-1-4.22-.48-8.46-.8-12.66-1.45-16.83-2.28-33.62-5.71-49.79-11.33-4.07-1.31-8.02-2.98-12.01-4.56-1.97-.83-3.91-1.76-5.87-2.64-1.97-.85-3.88-1.83-5.78-2.83-3.86-1.89-7.55-4.11-11.27-6.28l-5.42-3.52c-1.81-1.18-3.51-2.51-5.27-3.76-13.84-10.31-25.84-23.3-34.73-38.22-4.47-7.44-8.22-15.29-11.3-23.39-3.06-8.11-5.42-16.45-7.21-24.9-3.55-16.92-4.76-34.19-4.61-51.34.26-17.17,1.97-34.25,4.6-51.13,1.29-8.45,2.86-16.84,4.59-25.2,1.72-8.36,3.63-16.67,5.71-24.93,8.41-33.04,19.07-65.38,30.69-97.29,5.92-16.01,11.91-31.58,16.13-47.81,4.31-16.18,7.17-32.74,8.65-49.42,2.92-33.38-.07-67.31-8.77-99.83-4.2-16.3-9.9-32.23-16.8-47.64-3.44-7.71-7.27-15.25-11.39-22.63-2.06-3.69-4.17-7.36-6.42-10.94-2.23-3.59-4.55-7.14-7.07-10.55Z"/>
  <path class="cls-1" d="m514.31,407.09c17.1,3.87,33.61,10.18,49.43,17.8,15.82,7.66,30.95,16.82,45.05,27.43,28.16,21.23,51.9,48.67,68.31,80.15,8.25,15.7,14.79,32.3,19.56,49.39,1.22,4.27,2.27,8.56,3.27,12.91,1,4.38,1.74,8.82,2.29,13.29,1.13,8.94,1.22,18.02.41,27.01-.88,8.99-2.66,17.9-5.41,26.48-2.73,8.59-6.28,16.89-10.46,24.81-8.34,15.88-18.96,30.32-30.46,43.77-11.51,13.48-24.06,25.92-36.81,38.02-12.79,12.08-25.88,23.76-38.9,35.45-26.1,23.28-52.08,46.69-74.62,73.11-11.22,13.22-21.44,27.29-29.76,42.44-8.35,15.11-14.64,31.39-17.87,48.36-3.36,16.95-3.58,34.52-1.01,51.72,1.32,8.6,3.2,17.13,5.73,25.49,2.45,8.38,5.42,16.62,8.81,24.7-3.78-7.9-7.16-16-10.03-24.31-2.85-8.31-5.06-16.85-6.72-25.5-3.23-17.32-3.69-35.28-.86-52.82,2.86-17.54,8.91-34.5,17.08-50.24,8.2-15.76,18.44-30.34,29.6-44.02,11.16-13.71,23.36-26.48,35.92-38.8,12.56-12.32,25.5-24.2,38.45-35.99,25.93-23.51,52.12-46.74,74.78-72.95,11.29-13.09,21.59-27.03,29.6-42.16,8.03-15.08,13.56-31.45,15.36-48.32.86-8.43.87-16.96-.1-25.41-.47-4.22-1.12-8.44-2.03-12.61-.92-4.18-1.91-8.42-3.05-12.58-4.46-16.69-10.48-32.98-18.27-48.41-7.78-15.43-17.27-30.01-28.19-43.45-5.48-6.7-11.34-13.11-17.51-19.21-6.17-6.1-12.71-11.83-19.45-17.32-13.54-10.9-28.2-20.46-43.64-28.58-7.72-4.06-15.65-7.74-23.73-11.06-8.08-3.32-16.31-6.34-24.77-8.58Z"/>
  <path class="cls-3" d="m576.72,1046.9q0-495.01-284.31-495.01,284.31,0,284.31-495.01,0,495.01,284.31,495.01-284.31,0-284.31,495.01Z"/>
  <path class="cls-6" d="m434.57,799.4q142.16-247.5,0-495.01,142.16,247.5,284.31,0-142.16,247.5,0,495.01-142.16-247.5-284.31,0Z"/>
  <path class="cls-5" d="m306.85,485.51q35.15,0,35.15-35.15,0,35.15,35.15,35.15-35.15,0-35.15,35.15,0-35.15-35.15-35.15Z"/>
  <path class="cls-2" d="m373.75,462.37c-8.96,0-16.24-7.29-16.24-16.24s7.29-16.24,16.24-16.24,16.24,7.29,16.24,16.24-7.29,16.24-16.24,16.24Zm0-28.35c-6.68,0-12.11,5.43-12.11,12.11s5.43,12.11,12.11,12.11,12.11-5.43,12.11-12.11-5.43-12.11-12.11-12.11Z"/>
  <circle class="cls-5" cx="744.16" cy="782.05" r="8.86"/>
  <path class="cls-4" d="m579.05,836.66q84.58,0,84.58-84.58,0,84.58,84.58,84.58-84.58,0-84.58,84.58,0-84.58-84.58-84.58Z"/>
</svg>